# xmcd
#
# Track frame offsets:
#	150
#	21995
#	35906
#	49587
#	57755
#	68702
#	94176
#	106799
#	119255
#	131306
#	147815
#	158449
#
# Disc length: 2359 seconds
#
# Revision: 1
# Processed by: cddbd v1.5.2PL0 Copyright (c) Steve Scherf et al.
# Submitted via: audiograbber 1.83.01
#
DISCID=9809350c
DTITLE=Jimi Hendrix - Jimi Hendrix Experience
DYEAR=1900
DGENRE=Rock
TTITLE0=Exp/Up From The Skies
TTITLE1=Spanish Castle Magic
TTITLE2=Wait Until Tomorrow
TTITLE3=Ain't No Telling
TTITLE4=Little Wing
TTITLE5=If Six Was Nine
TTITLE6=You Got Me Floatin'
TTITLE7=Castles Made Of Sand
TTITLE8=She's So Fine
TTITLE9=One Rainy Wish
TTITLE10=Little Miss Lover
TTITLE11=Bold As Love
EXTD=
EXTT0=
EXTT1=
EXTT2=
EXTT3=
EXTT4=
EXTT5=
EXTT6=
EXTT7=
EXTT8=
EXTT9=
EXTT10=
EXTT11=
PLAYORDER=
